# xmcd
#
# Track frame offsets: 
#        150
#        11977
#        21831
#        33858
#        45626
#        57112
#        69644
#        83164
#        96331
#        109451
#        122195
#        131685
#        142691
#        154506
#        164901
#        179324
#        190787
#        203790
#        214937
#        227340
#        240495
#        249726
#        261130
#        272863
#        287227
#        301029
#        313350
#        324989
#        337040
#        348246
#
# Disc length: 4825 seconds
#
# Revision: 0
# Processed by: cddbd v1.5.2PL0 Copyright (c) Steve Scherf et al.
# Submitted via: ExactAudioCopy v1.3
#
DISCID=bc12d71e
DTITLE=Webb Pierce - The Chronogical Webb Pierce 1949-1951 (Warped 597
DTITLE=0)
DYEAR=2009
DGENRE=Country
TTITLE0=High Gear Daddy (1949)
TTITLE1=Heebie Geebie Blues (1949)
TTITLE2=Sweetheart, You Know I Loveyou So (1949)
TTITLE3=I'm Happy You Hurt Me (1949)
TTITLE4=English Sweetheart (1949)
TTITLE5=The Darkess Hour (1949)
TTITLE6=A Million Years From Now (1949)
TTITLE7=I Heard Her Call My Name In Prayer
TTITLE8=Broovie Boogie Woogie Boy (1950)
TTITLE9=New Panhandle Rag (1950)
TTITLE10=Georgia Rag (1950)
TTITLE11=I Saw Your Face In The Moon (1950)
TTITLE12=I've Loved You Forever It Seems (1950)
TTITLE13=Hawaiian Echoes (1950)
TTITLE14=It's All Between The Lines (1950)
TTITLE15=Jinx In Love (1950)
TTITLE16=Jilted Love (1950)
TTITLE17=Lucy Love (1950)
TTITLE18=Driftin' Texas Sand (1950)
TTITLE19=You Scared The Love Right Out Of Me (1950)
TTITLE20=I Need You Like A Hole In The Head (1950)
TTITLE21=I'm Watching The Stars (1950)
TTITLE22=I'm Sittin' On Top Of The World (1950)
TTITLE23=Freight Train Blues (1950)
TTITLE24=California Blues (1951)
TTITLE25=Hayride Boogie (1951)
TTITLE26=I Got Religion On Saturday Night (1950)
TTITLE27=Have You Ever Had The Feeling (1950)
TTITLE28=In The Jailhouse Now
TTITLE29=The Last Waltz (1951)
EXTD=
EXTT0=
EXTT1=
EXTT2=
EXTT3=
EXTT4=
EXTT5=
EXTT6=
EXTT7=
EXTT8=
EXTT9=
EXTT10=
EXTT11=
EXTT12=
EXTT13=
EXTT14=
EXTT15=
EXTT16=
EXTT17=
EXTT18=
EXTT19=
EXTT20=
EXTT21=
EXTT22=
EXTT23=
EXTT24=
EXTT25=
EXTT26=
EXTT27=
EXTT28=
EXTT29=
PLAYORDER=
